<?xml version="1.0" encoding="UTF-8" standalone="no"?>
<svg
   xmlns:dc="http://purl.org/dc/elements/1.1/"
   xmlns:cc="http://creativecommons.org/ns#"
   xmlns:rdf="http://www.w3.org/1999/02/22-rdf-syntax-ns#"
   xmlns:svg="http://www.w3.org/2000/svg"
   xmlns="http://www.w3.org/2000/svg"
   xmlns:sodipodi="http://sodipodi.sourceforge.net/DTD/sodipodi-0.dtd"
   xmlns:inkscape="http://www.inkscape.org/namespaces/inkscape"
   sodipodi:docname="event icons.svg"
   inkscape:version="1.0 (4035a4fb49, 2020-05-01)"
   id="svg7283"
   version="1.1"
   viewBox="0 0 210 297"
   height="297mm"
   width="210mm">
  <defs
     id="defs7277">
    <inkscape:path-effect
       effect="mirror_symmetry"
       start_point="76.05,14.65"
       end_point="76.05,18.9"
       center_point="75.122767,16.772693"
       id="path-effect855"
       is_visible="true"
       lpeversion="1"
       mode="free"
       discard_orig_path="false"
       fuse_paths="false"
       oposite_fuse="false"
       split_items="false" />
    <inkscape:path-effect
       effect="mirror_symmetry"
       start_point="76.05,8.1508895"
       end_point="76.05,17.65106"
       center_point="72.760416,12.900975"
       id="path-effect851"
       is_visible="true"
       lpeversion="1"
       mode="free"
       discard_orig_path="false"
       fuse_paths="false"
       oposite_fuse="false"
       split_items="false" />
    <inkscape:path-effect
       effect="mirror_symmetry"
       start_point="76.046273,19.38265"
       end_point="76.046273,49.634741"
       center_point="76.046273,34.508695"
       id="path-effect24"
       is_visible="true"
       lpeversion="1"
       mode="free"
       discard_orig_path="false"
       fuse_paths="false"
       oposite_fuse="false"
       split_items="false" />
  </defs>
  <sodipodi:namedview
     inkscape:window-maximized="1"
     inkscape:window-y="-8"
     inkscape:window-x="-8"
     inkscape:window-height="705"
     inkscape:window-width="1366"
     showguides="false"
     inkscape:snap-nodes="false"
     showgrid="false"
     inkscape:document-rotation="0"
     inkscape:current-layer="g7905"
     inkscape:document-units="mm"
     inkscape:cy="196.94336"
     inkscape:cx="274.20911"
     inkscape:zoom="0.7"
     inkscape:pageshadow="2"
     inkscape:pageopacity="0.0"
     borderopacity="1.0"
     bordercolor="#666666"
     pagecolor="#ffffff"
     id="base" />
  <metadata
     id="metadata7280">
    <rdf:RDF>
      <cc:Work
         rdf:about="">
        <dc:format>image/svg+xml</dc:format>
        <dc:type
           rdf:resource="http://purl.org/dc/dcmitype/StillImage" />
        <dc:title />
      </cc:Work>
    </rdf:RDF>
  </metadata>
  <g
     style="display:inline;opacity:0.99"
     inkscape:label="draw"
     inkscape:groupmode="layer"
     id="g7905">
    <path
       inkscape:label="clover"
       style="fill:#008511;fill-opacity:1;stroke:none;stroke-width:0.264583px;stroke-linecap:butt;stroke-linejoin:miter;stroke-opacity:1"
       d="m 35.06367,77.502879 c -6.915404,-2.051184 -7.171258,-6.380635 -7.483546,-10.69078 1.874271,6.798382 11.668281,7.948533 11.960312,-0.868627 C 47.270982,66.924008 51.751688,52.884912 32.190522,52.9809 52.456468,52.546504 46.509943,38.0208 39.540436,39.884693 39.875897,30.624222 25.888968,30.458631 26.711498,45.965076 26.512201,28.868119 12.951277,32.020865 13.682108,39.884693 6.826251,38.621086 0.83496497,52.405384 20.631116,52.9809 0.81142697,53.196595 6.910471,67.442701 13.748926,66.01029 c -0.724689,5.821102 7.740745,9.813273 11.559407,1.403164 0.04384,6.649871 2.61178,11.208339 8.88671,12.695304 z"
       id="path7889"
       sodipodi:nodetypes="cccccccccccc"
       inkscape:export-xdpi="51.903759"
       inkscape:export-ydpi="51.903759" />
    <g
       inkscape:export-ydpi="58.763378"
       inkscape:export-xdpi="58.763378"
       id="g901">
      <path
         id="path857"
         d="m 88.729909,55.468006 -24.095982,0.09449 4.535715,19.654761 h 14.45759 z"
         style="fill:#ff2000;fill-opacity:1;stroke:none;stroke-width:0.264583px;stroke-linecap:butt;stroke-linejoin:miter;stroke-opacity:1" />
      <g
         style="fill:#ff2000;fill-opacity:1;stroke:#ffffff;stroke-opacity:1"
         inkscape:path-effect="#path-effect24"
         id="g7925"
         inkscape:label="teeth"
         transform="translate(0.37797619,29.482143)">
        <path
           inkscape:original-d="m 65.870729,37.431733 c -1.495577,0.631091 -6.150808,-12.37051 -2.390623,-14.951441 0.801842,-0.550372 4.91668,2.553257 5.015312,3.367424 -0.918751,1.022611 -1.830694,4.19421 -2.178734,6.130944 -0.304748,1.695823 0.552706,5.031667 -0.445955,5.453073 z"
           sodipodi:nodetypes="sscss"
           id="path7876"
           d="m 65.870729,37.431733 c -1.495577,0.631091 -6.150808,-12.37051 -2.390623,-14.951441 0.801842,-0.550372 4.91668,2.553257 5.015312,3.367424 -0.918751,1.022611 -1.830694,4.19421 -2.178734,6.130944 -0.304748,1.695823 0.552706,5.031667 -0.445955,5.453073 z m 20.351088,0 c 1.495577,0.631091 6.150808,-12.37051 2.390623,-14.951441 -0.801842,-0.550372 -4.91668,2.553257 -5.015312,3.367424 0.918751,1.022611 1.830694,4.19421 2.178734,6.130944 0.304748,1.695823 -0.552706,5.031667 0.445955,5.453073 z"
           style="fill:#ff2000;fill-opacity:1;stroke:#ffffff;stroke-width:0.283708px;stroke-linecap:butt;stroke-linejoin:miter;stroke-opacity:1" />
        <path
           inkscape:original-d="m 65.20089,27.92299 c -0.50772,-0.503466 0.26294,-6.642474 1.771766,-7.1343 0.359366,-0.117141 1.037499,-0.203071 1.370162,-0.02362 0.485747,0.262024 3.490764,4.957029 2.409599,6.023995 -0.584432,0.576756 -5.036972,1.644171 -5.551527,1.133928 z"
           sodipodi:nodetypes="sssss"
           id="path7878"
           d="m 65.20089,27.92299 c -0.50772,-0.503466 0.26294,-6.642474 1.771766,-7.1343 0.359366,-0.117141 1.037499,-0.203071 1.370162,-0.02362 0.485747,0.262024 3.490764,4.957029 2.409599,6.023995 -0.584432,0.576756 -5.036972,1.644171 -5.551527,1.133928 z m 21.690766,0 c 0.50772,-0.503466 -0.26294,-6.642474 -1.771766,-7.1343 -0.359366,-0.117141 -1.037499,-0.203071 -1.370162,-0.02362 -0.485747,0.262024 -3.490764,4.957029 -2.409599,6.023995 0.584432,0.576756 5.036972,1.644171 5.551527,1.133928 z"
           style="fill:#ff2000;fill-opacity:1;stroke:#ffffff;stroke-width:0.665;stroke-linecap:butt;stroke-linejoin:miter;stroke-miterlimit:4;stroke-dasharray:none;stroke-opacity:1" />
        <path
           inkscape:original-d="m 69.122394,26.50558 c -0.510984,-4.834758 1.549052,-6.978155 2.693081,-7.087053 0.646292,-0.06152 1.033074,-0.100027 1.984376,0.377976 1.34169,0.674161 2.251291,3.555533 2.007998,7.110678 -3.103347,0.824536 -5.486468,0.489766 -6.685455,-0.401601 z"
           sodipodi:nodetypes="csscc"
           id="path7880"
           d="m 69.122394,26.50558 c -0.510984,-4.834758 1.549052,-6.978155 2.693081,-7.087053 0.646292,-0.06152 1.033074,-0.100027 1.984376,0.377976 1.34169,0.674161 2.251291,3.555533 2.007998,7.110678 -3.103347,0.824536 -5.486468,0.489766 -6.685455,-0.401601 z m 13.847758,0 c 0.510984,-4.834758 -1.549052,-6.978155 -2.693081,-7.087053 -0.646292,-0.06152 -1.033074,-0.100027 -1.984376,0.377976 -1.34169,0.674161 -2.251291,3.555533 -2.007998,7.110678 3.103347,0.824536 5.486468,0.489766 6.685455,-0.401601 z"
           style="fill:#ff2000;fill-opacity:1;stroke:#ffffff;stroke-width:0.665;stroke-linecap:butt;stroke-linejoin:miter;stroke-miterlimit:4;stroke-dasharray:none;stroke-opacity:1" />
        <path
           inkscape:original-d="m 66.550111,47.006026 c -2.61294,-1.208236 -0.03603,-12.339688 1.570209,-12.093945 0.747336,0.114336 0.476579,2.214225 0.567949,3.541323 0.135661,1.970402 1.002262,4.120405 1.603619,6.314242 -0.356663,0.177877 -2.396031,2.860661 -3.741777,2.23838 z"
           sodipodi:nodetypes="ssscs"
           id="path7882"
           d="m 66.550111,47.006026 c -2.61294,-1.208236 -0.03603,-12.339688 1.570209,-12.093945 0.747336,0.114336 0.476579,2.214225 0.567949,3.541323 0.135661,1.970402 1.002262,4.120405 1.603619,6.314242 -0.356663,0.177877 -2.396031,2.860661 -3.741777,2.23838 z m 18.992324,0 c 2.61294,-1.208236 0.03603,-12.339688 -1.570209,-12.093945 -0.747336,0.114336 -0.476579,2.214225 -0.567949,3.541323 -0.135661,1.970402 -1.002262,4.120405 -1.603619,6.314242 0.356663,0.177877 2.396031,2.860661 3.741777,2.23838 z"
           style="fill:#ff2000;fill-opacity:1;stroke:#ffffff;stroke-width:0.665;stroke-linecap:butt;stroke-linejoin:miter;stroke-miterlimit:4;stroke-dasharray:none;stroke-opacity:1" />
        <path
           inkscape:original-d="m 67.639947,42.860483 c 0.447754,-0.392243 4.016011,0.420812 4.259608,0.734991 0.713723,0.920523 -0.678492,3.733926 -1.603616,4.76074 -0.208716,0.231659 -1.093832,0.279516 -1.336349,0.08352 -1.25397,-1.013421 -1.859483,-5.106341 -1.319643,-5.579253 z"
           sodipodi:nodetypes="sssss"
           id="path7884"
           d="m 67.639947,42.860483 c 0.447754,-0.392243 4.016011,0.420812 4.259608,0.734991 0.713723,0.920523 -0.678492,3.733926 -1.603616,4.76074 -0.208716,0.231659 -1.093832,0.279516 -1.336349,0.08352 -1.25397,-1.013421 -1.859483,-5.106341 -1.319643,-5.579253 z m 16.812652,0 c -0.447754,-0.392243 -4.016011,0.420812 -4.259608,0.734991 -0.713723,0.920523 0.678492,3.733926 1.603616,4.76074 0.208716,0.231659 1.093832,0.279516 1.336349,0.08352 1.25397,-1.013421 1.859483,-5.106341 1.319643,-5.579253 z"
           style="fill:#ff2000;fill-opacity:1;stroke:#ffffff;stroke-width:0.665;stroke-linecap:butt;stroke-linejoin:miter;stroke-miterlimit:4;stroke-dasharray:none;stroke-opacity:1" />
        <path
           inkscape:original-d="m 76.020461,43.774367 c -1.218306,-0.382515 -3.4814,-0.673676 -5.197173,0.283482 -0.241775,2.514327 0.466928,4.892644 1.937127,5.457032 0.354923,0.13625 1.202546,0.304987 2.055247,-0.425224 1.512926,-1.295596 1.204799,-5.31529 1.204799,-5.31529 z"
           sodipodi:nodetypes="ccssc"
           id="path7886"
           d="m 76.020461,43.774367 c -1.218306,-0.382515 -3.4814,-0.673676 -5.197173,0.283482 -0.241775,2.514327 0.466928,4.892644 1.937127,5.457032 0.354923,0.13625 1.202546,0.304987 2.055247,-0.425224 1.512926,-1.295596 1.204799,-5.31529 1.204799,-5.31529 z m 0.05162,0 c 1.218306,-0.382515 3.4814,-0.673676 5.197173,0.283482 0.241775,2.514327 -0.466928,4.892644 -1.937127,5.457032 -0.354923,0.13625 -1.202546,0.304987 -2.055247,-0.425224 -1.512926,-1.295596 -1.204799,-5.31529 -1.204799,-5.31529 z"
           style="fill:#ff2000;fill-opacity:1;stroke:#ffffff;stroke-width:0.665;stroke-linecap:butt;stroke-linejoin:miter;stroke-miterlimit:4;stroke-dasharray:none;stroke-opacity:1" />
        <path
           inkscape:original-d="m 65.870729,37.431733 c -1.495577,0.631091 -6.150808,-12.37051 -2.390623,-14.951441 0.801842,-0.550372 4.91668,2.553257 5.015312,3.367424 -0.918751,1.022611 -1.830694,4.19421 -2.178734,6.130944 -0.304748,1.695823 0.552706,5.031667 -0.445955,5.453073 z"
           style="fill:#ff2000;fill-opacity:1;stroke:#ffffff;stroke-width:0.665;stroke-linecap:butt;stroke-linejoin:miter;stroke-miterlimit:4;stroke-dasharray:none;stroke-opacity:1"
           d="m 65.870729,37.431733 c -1.495577,0.631091 -6.150808,-12.37051 -2.390623,-14.951441 0.801842,-0.550372 4.91668,2.553257 5.015312,3.367424 -0.918751,1.022611 -1.830694,4.19421 -2.178734,6.130944 -0.304748,1.695823 0.552706,5.031667 -0.445955,5.453073 z m 20.351088,0 c 1.495577,0.631091 6.150808,-12.37051 2.390623,-14.951441 -0.801842,-0.550372 -4.91668,2.553257 -5.015312,3.367424 0.918751,1.022611 1.830694,4.19421 2.178734,6.130944 0.304748,1.695823 -0.552706,5.031667 0.445955,5.453073 z"
           id="path7891"
           sodipodi:nodetypes="sscss" />
        <path
           inkscape:original-d="m 65.20089,27.92299 c -0.50772,-0.503466 0.26294,-6.642474 1.771766,-7.1343 0.359366,-0.117141 1.037499,-0.203071 1.370162,-0.02362 0.485747,0.262024 3.490764,4.957029 2.409599,6.023995 -0.584432,0.576756 -5.036972,1.644171 -5.551527,1.133928 z"
           style="fill:#ff2000;fill-opacity:1;stroke:#ffffff;stroke-width:0.665;stroke-linecap:butt;stroke-linejoin:miter;stroke-miterlimit:4;stroke-dasharray:none;stroke-opacity:1"
           d="m 65.20089,27.92299 c -0.50772,-0.503466 0.26294,-6.642474 1.771766,-7.1343 0.359366,-0.117141 1.037499,-0.203071 1.370162,-0.02362 0.485747,0.262024 3.490764,4.957029 2.409599,6.023995 -0.584432,0.576756 -5.036972,1.644171 -5.551527,1.133928 z m 21.690766,0 c 0.50772,-0.503466 -0.26294,-6.642474 -1.771766,-7.1343 -0.359366,-0.117141 -1.037499,-0.203071 -1.370162,-0.02362 -0.485747,0.262024 -3.490764,4.957029 -2.409599,6.023995 0.584432,0.576756 5.036972,1.644171 5.551527,1.133928 z"
           id="path7893"
           sodipodi:nodetypes="sssss" />
        <path
           inkscape:original-d="m 69.122394,26.50558 c -0.510984,-4.834758 1.549052,-6.978155 2.693081,-7.087053 0.646292,-0.06152 1.033074,-0.100027 1.984376,0.377976 1.34169,0.674161 2.251291,3.555533 2.007998,7.110678 -3.103347,0.824536 -5.486468,0.489766 -6.685455,-0.401601 z"
           style="fill:#ff2000;fill-opacity:1;stroke:#ffffff;stroke-width:0.665;stroke-linecap:butt;stroke-linejoin:miter;stroke-miterlimit:4;stroke-dasharray:none;stroke-opacity:1"
           d="m 69.122394,26.50558 c -0.510984,-4.834758 1.549052,-6.978155 2.693081,-7.087053 0.646292,-0.06152 1.033074,-0.100027 1.984376,0.377976 1.34169,0.674161 2.251291,3.555533 2.007998,7.110678 -3.103347,0.824536 -5.486468,0.489766 -6.685455,-0.401601 z m 13.847758,0 c 0.510984,-4.834758 -1.549052,-6.978155 -2.693081,-7.087053 -0.646292,-0.06152 -1.033074,-0.100027 -1.984376,0.377976 -1.34169,0.674161 -2.251291,3.555533 -2.007998,7.110678 3.103347,0.824536 5.486468,0.489766 6.685455,-0.401601 z"
           id="path7895"
           sodipodi:nodetypes="csscc" />
        <path
           inkscape:original-d="m 66.550111,47.006026 c -2.61294,-1.208236 -0.03603,-12.339688 1.570209,-12.093945 0.747336,0.114336 0.476579,2.214225 0.567949,3.541323 0.135661,1.970402 1.002262,4.120405 1.603619,6.314242 -0.356663,0.177877 -2.396031,2.860661 -3.741777,2.23838 z"
           style="fill:#ff2000;fill-opacity:1;stroke:#ffffff;stroke-width:0.665;stroke-linecap:butt;stroke-linejoin:miter;stroke-miterlimit:4;stroke-dasharray:none;stroke-opacity:1"
           d="m 66.550111,47.006026 c -2.61294,-1.208236 -0.03603,-12.339688 1.570209,-12.093945 0.747336,0.114336 0.476579,2.214225 0.567949,3.541323 0.135661,1.970402 1.002262,4.120405 1.603619,6.314242 -0.356663,0.177877 -2.396031,2.860661 -3.741777,2.23838 z m 18.992324,0 c 2.61294,-1.208236 0.03603,-12.339688 -1.570209,-12.093945 -0.747336,0.114336 -0.476579,2.214225 -0.567949,3.541323 -0.135661,1.970402 -1.002262,4.120405 -1.603619,6.314242 0.356663,0.177877 2.396031,2.860661 3.741777,2.23838 z"
           id="path7897"
           sodipodi:nodetypes="ssscs" />
        <path
           inkscape:original-d="m 67.639947,42.860483 c 0.447754,-0.392243 4.016011,0.420812 4.259608,0.734991 0.713723,0.920523 -0.678492,3.733926 -1.603616,4.76074 -0.208716,0.231659 -1.093832,0.279516 -1.336349,0.08352 -1.25397,-1.013421 -1.859483,-5.106341 -1.319643,-5.579253 z"
           style="fill:#ff2000;fill-opacity:1;stroke:#ffffff;stroke-width:0.665;stroke-linecap:butt;stroke-linejoin:miter;stroke-miterlimit:4;stroke-dasharray:none;stroke-opacity:1"
           d="m 67.639947,42.860483 c 0.447754,-0.392243 4.016011,0.420812 4.259608,0.734991 0.713723,0.920523 -0.678492,3.733926 -1.603616,4.76074 -0.208716,0.231659 -1.093832,0.279516 -1.336349,0.08352 -1.25397,-1.013421 -1.859483,-5.106341 -1.319643,-5.579253 z m 16.812652,0 c -0.447754,-0.392243 -4.016011,0.420812 -4.259608,0.734991 -0.713723,0.920523 0.678492,3.733926 1.603616,4.76074 0.208716,0.231659 1.093832,0.279516 1.336349,0.08352 1.25397,-1.013421 1.859483,-5.106341 1.319643,-5.579253 z"
           id="path7899"
           sodipodi:nodetypes="sssss" />
        <path
           inkscape:original-d="m 76.020461,43.774367 c -1.218306,-0.382515 -3.4814,-0.673676 -5.197173,0.283482 -0.241775,2.514327 0.466928,4.892644 1.937127,5.457032 0.354923,0.13625 1.202546,0.304987 2.055247,-0.425224 1.512926,-1.295596 1.204799,-5.31529 1.204799,-5.31529 z"
           style="fill:#ff2000;fill-opacity:1;stroke:#ffffff;stroke-width:0.665;stroke-linecap:butt;stroke-linejoin:miter;stroke-miterlimit:4;stroke-dasharray:none;stroke-opacity:1"
           d="m 76.020461,43.774367 c -1.218306,-0.382515 -3.4814,-0.673676 -5.197173,0.283482 -0.241775,2.514327 0.466928,4.892644 1.937127,5.457032 0.354923,0.13625 1.202546,0.304987 2.055247,-0.425224 1.512926,-1.295596 1.204799,-5.31529 1.204799,-5.31529 z m 0.05162,0 c 1.218306,-0.382515 3.4814,-0.673676 5.197173,0.283482 0.241775,2.514327 -0.466928,4.892644 -1.937127,5.457032 -0.354923,0.13625 -1.202546,0.304987 -2.055247,-0.425224 -1.512926,-1.295596 -1.204799,-5.31529 -1.204799,-5.31529 z"
           id="path7901"
           sodipodi:nodetypes="ccssc" />
      </g>
      <path
         inkscape:original-d="m 68.508182,6.6145834 c 2.425545,0.4168589 4.737898,1.809774 5.480657,5.3861616 -1.457816,2.741757 -7.577351,7.013018 -12.85119,2.551338 0.653446,-4.040095 2.080933,-8.8465808 7.370533,-7.9374996 z"
         inkscape:path-effect="#path-effect851"
         sodipodi:nodetypes="sccs"
         id="path26"
         d="m 68.508182,6.6145834 c 2.425545,0.4168589 4.737898,1.809774 5.480657,5.3861616 -1.457816,2.741757 -7.577351,7.013018 -12.85119,2.551338 0.653446,-4.040095 2.080933,-8.8465808 7.370533,-7.9374996 z m 15.083636,0 c -2.425545,0.4168589 -4.737898,1.809774 -5.480657,5.3861616 1.457816,2.741757 7.577351,7.013018 12.85119,2.551338 -0.653446,-4.040095 -2.080933,-8.8465808 -7.370533,-7.9374996 z"
         style="fill:#ff2000;fill-opacity:1;stroke:none;stroke-width:0.665;stroke-linecap:butt;stroke-linejoin:miter;stroke-miterlimit:4;stroke-dasharray:none;stroke-opacity:1"
         transform="translate(0.37797619,29.482143)" />
      <path
         sodipodi:nodetypes="ssss"
         inkscape:original-d="m 71.90997,17.575893 c -0.288994,-0.958012 2.283707,-3.183478 3.02381,-2.929316 0.444744,0.152731 0.17104,3.788006 -0.377977,3.96875 -0.829663,0.273136 -2.393571,-0.203188 -2.645833,-1.039434 z"
         inkscape:path-effect="#path-effect855"
         id="path853"
         d="m 71.90997,17.575893 c -0.288994,-0.958012 2.283707,-3.183478 3.02381,-2.929316 0.444744,0.152731 0.17104,3.788006 -0.377977,3.96875 -0.829663,0.273136 -2.393571,-0.203188 -2.645833,-1.039434 z m 8.28006,0 c 0.288994,-0.958012 -2.283707,-3.183478 -3.02381,-2.929316 -0.444744,0.152731 -0.17104,3.788006 0.377977,3.96875 0.829663,0.273136 2.393571,-0.203188 2.645833,-1.039434 z"
         style="fill:#ff2000;fill-opacity:1;stroke:none;stroke-width:0.665;stroke-linecap:butt;stroke-linejoin:miter;stroke-miterlimit:4;stroke-dasharray:none;stroke-opacity:1"
         transform="translate(0.37797619,29.482143)" />
      <path
         sodipodi:nodetypes="sscccssssss"
         id="path859"
         d="m 75.57231,60.315838 c 0,0 -2.253727,0.140868 -2.787575,1.133927 -1.038281,1.931402 -0.94367,3.380752 -0.246084,4.372597 2.543719,-0.23794 3.30155,0.918642 3.910912,1.645209 0.611365,-0.471688 0.817625,-1.618344 3.639999,-1.304257 0.96151,-0.949154 1.262557,-2.405817 0.1602,-4.335572 -0.633139,-1.108355 -2.69308,-1.700892 -2.69308,-1.700892 -1.305044,0.966367 -0.06397,2.543252 -0.01093,3.316294 0.03046,0.443913 -0.445553,0.942609 -1.014666,0.950758 -0.661896,0.0095 -1.129395,-0.729297 -1.128501,-1.051119 0.0022,-0.774582 1.470098,-2.230339 0.169724,-3.026945 z"
         style="fill:#ffffff;fill-opacity:1;stroke:none;stroke-width:0.264583px;stroke-linecap:butt;stroke-linejoin:miter;stroke-opacity:1" />
    </g>
    <g
       id="g930"
       transform="translate(0.37797619,29.482143)"
       inkscape:export-xdpi="51.903759"
       inkscape:export-ydpi="51.903759">
      <path
         sodipodi:nodetypes="cccccccc"
         id="path877"
         d="m 120.76339,27.308779 -5.38616,9.82738 6.99255,4e-6 -3.11829,12.851192 12.47321,-16.53646 -7.9375,0.0945 4.53571,-6.236608 z"
         style="fill:#ffff00;fill-opacity:0.992157;stroke:#000000;stroke-width:1.165;stroke-linecap:butt;stroke-linejoin:miter;stroke-miterlimit:6.2;stroke-dasharray:none;stroke-opacity:1" />
      <path
         sodipodi:nodetypes="ccccccc"
         id="path875"
         d="m 136.63839,20.31622 c 8.07733,-4.477543 0.89897,-15.4760593 -6.47284,-11.0085565 -1.15242,-6.3590474 -10.78734,-7.219504 -12.85119,-0.141741 -4.6345,-2.8807372 -12.10698,1.6985225 -9.49666,8.1264875 -6.69192,4.332391 -1.86212,11.868301 2.4096,11.481027 l 26.97805,0.04725 c 5.2005,-0.252812 8.54487,-7.529579 2.59859,-11.481027"
         style="fill:#7e7e7e;fill-opacity:0.992157;stroke:#000000;stroke-width:1.165;stroke-linecap:round;stroke-linejoin:miter;stroke-miterlimit:4;stroke-dasharray:none;stroke-opacity:1" />
    </g>
    <g
       id="g926"
       transform="translate(0.37797619,29.482143)"
       inkscape:export-xdpi="51.903759"
       inkscape:export-ydpi="51.903759">
      <circle
         r="10.409923"
         cy="26.565809"
         cx="177.23309"
         id="path895"
         style="opacity:0.997;fill:#5cdbff;fill-opacity:1;stroke:#000000;stroke-width:3.62537;stroke-linecap:round;stroke-linejoin:round;stroke-miterlimit:4;stroke-dasharray:none;stroke-opacity:1" />
      <path
         sodipodi:nodetypes="ccc"
         id="path893"
         d="m 156.03735,26.580504 c 10.81491,-14.054516 30.98855,-14.180785 42.21116,-0.09449 -11.79498,14.395427 -30.63053,14.337165 -42.21116,0.09449 z"
         style="fill:none;stroke:#000000;stroke-width:3.665;stroke-linecap:butt;stroke-linejoin:round;stroke-miterlimit:4;stroke-dasharray:none;stroke-opacity:1" />
      <circle
         r="4.9778948"
         cy="26.498993"
         cx="177.16628"
         id="path897"
         style="opacity:0.997;fill:#000000;fill-opacity:1;stroke:none;stroke-width:5.4068;stroke-linecap:round;stroke-linejoin:round;stroke-miterlimit:4;stroke-dasharray:none;stroke-opacity:1" />
      <circle
         r="2.8731472"
         cy="23.325169"
         cx="173.85881"
         id="path899"
         style="opacity:0.997;fill:#ffffff;fill-opacity:1;stroke:none;stroke-width:3.66501;stroke-linecap:round;stroke-linejoin:round;stroke-miterlimit:4;stroke-dasharray:none;stroke-opacity:1" />
      <path
         id="path901"
         d="m 160.82944,16.242524 -2.00452,-3.274051"
         style="fill:none;stroke:#000000;stroke-width:1.865;stroke-linecap:round;stroke-linejoin:miter;stroke-miterlimit:4;stroke-dasharray:none;stroke-opacity:1" />
      <path
         id="path903"
         d="m 165.90756,13.837098 -1.46999,-3.674956"
         style="fill:none;stroke:#000000;stroke-width:1.865;stroke-linecap:round;stroke-linejoin:miter;stroke-miterlimit:4;stroke-dasharray:none;stroke-opacity:1" />
      <path
         id="path905"
         d="M 171.4534,12.233481 170.71841,8.2912563"
         style="fill:none;stroke:#000000;stroke-width:1.865;stroke-linecap:round;stroke-linejoin:miter;stroke-miterlimit:4;stroke-dasharray:none;stroke-opacity:1" />
      <path
         id="path907"
         d="M 177.1997,11.632125 V 7.7567173"
         style="fill:none;stroke:#000000;stroke-width:1.865;stroke-linecap:round;stroke-linejoin:miter;stroke-miterlimit:4;stroke-dasharray:none;stroke-opacity:1" />
      <path
         id="path909"
         d="M 182.87917,12.300299 183.7478,8.2912563"
         style="fill:none;stroke:#000000;stroke-width:1.865;stroke-linecap:round;stroke-linejoin:miter;stroke-miterlimit:4;stroke-dasharray:none;stroke-opacity:1" />
      <path
         id="path911"
         d="m 188.3582,13.837098 1.5368,-3.674956"
         style="fill:none;stroke:#000000;stroke-width:1.865;stroke-linecap:round;stroke-linejoin:miter;stroke-miterlimit:4;stroke-dasharray:none;stroke-opacity:1" />
      <path
         id="path913"
         d="m 193.3695,16.309341 2.20497,-3.474503"
         style="fill:none;stroke:#000000;stroke-width:1.865;stroke-linecap:round;stroke-linejoin:miter;stroke-miterlimit:4;stroke-dasharray:none;stroke-opacity:1" />
    </g>
  </g>
</svg>
